<?xml version="1.0" standalone="no"?>
<!DOCTYPE svg PUBLIC "-//W3C//DTD SVG 20010904//EN"
 "http://www.w3.org/TR/2001/REC-SVG-20010904/DTD/svg10.dtd">
<svg version="1.0" xmlns="http://www.w3.org/2000/svg"
 width="896.000000pt" height="1280.000000pt" viewBox="0 0 896.000000 1280.000000"
 preserveAspectRatio="xMidYMid meet">
<metadata>
Created by potrace 1.15, written by Peter Selinger 2001-2017
</metadata>
<g transform="translate(0.000000,1280.000000) scale(0.100000,-0.100000)"
fill="#000000" stroke="none">
<path d="M1277 12479 l-317 -319 320 -320 320 -320 2880 0 2880 0 320 320 320
320 -320 320 -320 320 -2883 -1 -2882 -1 -318 -319z"/>
<path d="M318 11839 l-318 -319 0 -2240 0 -2240 315 -315 c173 -173 315 -319
315 -325 0 -6 -142 -152 -315 -325 l-315 -315 0 -2240 0 -2240 320 -320 320
-320 320 320 320 320 0 2240 0 2241 -315 314 c-173 173 -315 319 -315 325 0 6
142 152 315 325 l315 314 0 2241 0 2240 -320 320 c-176 176 -321 320 -323 319
-1 0 -145 -144 -319 -320z"/>
<path d="M7998 11839 l-318 -319 0 -2240 0 -2241 315 -314 c173 -173 315 -319
315 -325 0 -6 -142 -152 -315 -325 l-315 -314 0 -2241 0 -2240 320 -320 320
-320 320 320 320 320 0 2240 0 2240 -315 315 c-173 173 -315 319 -315 325 0 6
142 152 315 325 l315 315 0 2240 0 2240 -320 320 c-176 176 -321 320 -322 319
-2 0 -146 -144 -320 -320z"/>
<path d="M1601 10718 l0 -483 798 -1435 798 -1435 162 -3 161 -2 0 320 0 320
-800 1600 -800 1600 -160 0 -160 0 1 -482z"/>
<path d="M3840 9280 l0 -1920 320 -320 320 -320 320 320 320 320 0 1920 0
1920 -640 0 -640 0 0 -1920z"/>
<path d="M6240 9600 l-800 -1600 0 -320 0 -320 161 2 162 3 798 1435 798 1435
0 483 1 482 -160 0 -160 0 -800 -1600z"/>
<path d="M1277 6719 l-317 -319 320 -320 320 -320 960 0 960 0 320 320 320
320 -320 320 -320 320 -963 -1 -962 -1 -318 -319z"/>
<path d="M5117 6719 l-317 -319 320 -320 320 -320 800 0 800 0 320 320 320
320 -320 320 -320 320 -803 -1 -802 -1 -318 -319z"/>
<path d="M4158 6079 l-318 -319 0 -2080 0 -2080 640 0 640 0 0 2080 0 2080
-320 320 c-176 176 -321 320 -323 319 -1 0 -145 -144 -319 -320z"/>
<path d="M3176 5398 c-13 -24 -373 -672 -800 -1440 l-776 -1398 0 -480 0 -480
160 0 160 0 800 1600 800 1600 0 320 0 320 -160 0 -159 0 -25 -42z"/>
<path d="M5440 5120 l0 -320 800 -1600 800 -1600 160 0 160 0 -1 483 0 482
-798 1435 -798 1435 -162 3 -161 2 0 -320z"/>
<path d="M1277 959 l-317 -319 320 -320 320 -320 2880 0 2880 0 320 320 320
320 -320 320 -320 320 -2883 -1 -2882 -1 -318 -319z" />
</g>
</svg>
